<?xml version="1.0" encoding="UTF-8"?>
<svg id="Layer_1" data-name="Layer 1" xmlns="http://www.w3.org/2000/svg" version="1.1" viewBox="0 0 1871 56">
  <defs>
    <style>
      .cls-1 {
        fill: #3dae2b;
        stroke-width: 0px;
      }
    </style>
  </defs>
  <g>
    <g>
      <g>
        <g>
          <rect class="cls-1" x="80.1" y="23.6" width="44" height="8.7" transform="translate(130.1 -74.1) rotate(90)"/>
          <rect class="cls-1" x="62.8" y="23.6" width="44" height="8.7" transform="translate(112.8 -56.8) rotate(90)"/>
          <rect class="cls-1" x="45.5" y="23.6" width="44" height="8.7" transform="translate(95.5 -39.5) rotate(90)"/>
        </g>
        <g>
          <rect class="cls-1" x="11" y="40.9" width="44" height="8.7" transform="translate(66.1 90.5) rotate(-180)"/>
          <rect class="cls-1" x="11" y="23.6" width="44" height="8.7" transform="translate(66.1 56) rotate(-180)"/>
          <rect class="cls-1" x="11" y="6.4" width="44" height="8.7" transform="translate(66.1 21.5) rotate(-180)"/>
        </g>
      </g>
      <g>
        <g>
          <rect class="cls-1" x="182.8" y="23.6" width="44" height="8.7" transform="translate(232.8 -176.8) rotate(90)"/>
          <rect class="cls-1" x="165.6" y="23.6" width="44" height="8.7" transform="translate(215.6 -159.6) rotate(90)"/>
          <rect class="cls-1" x="148.3" y="23.6" width="44" height="8.7" transform="translate(198.3 -142.3) rotate(90)"/>
        </g>
        <g>
          <rect class="cls-1" x="113.8" y="40.9" width="44" height="8.7" transform="translate(271.6 90.5) rotate(-180)"/>
          <rect class="cls-1" x="113.8" y="23.6" width="44" height="8.7" transform="translate(271.6 56) rotate(-180)"/>
          <rect class="cls-1" x="113.8" y="6.4" width="44" height="8.7" transform="translate(271.6 21.5) rotate(-180)"/>
        </g>
      </g>
    </g>
    <g>
      <g>
        <g>
          <rect class="cls-1" x="284.5" y="23.6" width="44" height="8.7" transform="translate(334.5 -278.5) rotate(90)"/>
          <rect class="cls-1" x="267.2" y="23.6" width="44" height="8.7" transform="translate(317.2 -261.2) rotate(90)"/>
          <rect class="cls-1" x="249.9" y="23.6" width="44" height="8.7" transform="translate(299.9 -243.9) rotate(90)"/>
        </g>
        <g>
          <rect class="cls-1" x="215.4" y="40.9" width="44" height="8.7" transform="translate(474.8 90.5) rotate(-180)"/>
          <rect class="cls-1" x="215.4" y="23.6" width="44" height="8.7" transform="translate(474.8 56) rotate(-180)"/>
          <rect class="cls-1" x="215.4" y="6.4" width="44" height="8.7" transform="translate(474.8 21.5) rotate(-180)"/>
        </g>
      </g>
      <g>
        <g>
          <rect class="cls-1" x="387.2" y="23.6" width="44" height="8.7" transform="translate(437.2 -381.2) rotate(90)"/>
          <rect class="cls-1" x="369.9" y="23.6" width="44" height="8.7" transform="translate(419.9 -363.9) rotate(90)"/>
          <rect class="cls-1" x="352.7" y="23.6" width="44" height="8.7" transform="translate(402.7 -346.7) rotate(90)"/>
        </g>
        <g>
          <rect class="cls-1" x="318.2" y="40.9" width="44" height="8.7" transform="translate(680.3 90.5) rotate(-180)"/>
          <rect class="cls-1" x="318.2" y="23.6" width="44" height="8.7" transform="translate(680.3 56) rotate(-180)"/>
          <rect class="cls-1" x="318.2" y="6.4" width="44" height="8.7" transform="translate(680.3 21.5) rotate(-180)"/>
        </g>
      </g>
    </g>
    <g>
      <g>
        <g>
          <rect class="cls-1" x="490.2" y="23.6" width="44" height="8.7" transform="translate(540.2 -484.2) rotate(90)"/>
          <rect class="cls-1" x="472.9" y="23.6" width="44" height="8.7" transform="translate(522.9 -466.9) rotate(90)"/>
          <rect class="cls-1" x="455.7" y="23.6" width="44" height="8.7" transform="translate(505.7 -449.7) rotate(90)"/>
        </g>
        <g>
          <rect class="cls-1" x="421.1" y="40.9" width="44" height="8.7" transform="translate(886.3 90.5) rotate(-180)"/>
          <rect class="cls-1" x="421.1" y="23.6" width="44" height="8.7" transform="translate(886.3 56) rotate(-180)"/>
          <rect class="cls-1" x="421.1" y="6.4" width="44" height="8.7" transform="translate(886.3 21.5) rotate(-180)"/>
        </g>
      </g>
      <g>
        <g>
          <rect class="cls-1" x="592.9" y="23.6" width="44" height="8.7" transform="translate(642.9 -586.9) rotate(90)"/>
          <rect class="cls-1" x="575.7" y="23.6" width="44" height="8.7" transform="translate(625.7 -569.7) rotate(90)"/>
          <rect class="cls-1" x="558.4" y="23.6" width="44" height="8.7" transform="translate(608.4 -552.4) rotate(90)"/>
        </g>
        <g>
          <rect class="cls-1" x="523.9" y="40.9" width="44" height="8.7" transform="translate(1091.8 90.5) rotate(-180)"/>
          <rect class="cls-1" x="523.9" y="23.6" width="44" height="8.7" transform="translate(1091.8 56) rotate(-180)"/>
          <rect class="cls-1" x="523.9" y="6.4" width="44" height="8.7" transform="translate(1091.8 21.5) rotate(-180)"/>
        </g>
      </g>
    </g>
  </g>
  <g>
    <g>
      <g>
        <g>
          <rect class="cls-1" x="701.4" y="23.6" width="44" height="8.7" transform="translate(751.4 -695.4) rotate(90)"/>
          <rect class="cls-1" x="684.1" y="23.6" width="44" height="8.7" transform="translate(734.1 -678.1) rotate(90)"/>
          <rect class="cls-1" x="666.9" y="23.6" width="44" height="8.7" transform="translate(716.9 -660.9) rotate(90)"/>
        </g>
        <g>
          <rect class="cls-1" x="632.3" y="40.9" width="44" height="8.7" transform="translate(1308.7 90.5) rotate(-180)"/>
          <rect class="cls-1" x="632.3" y="23.6" width="44" height="8.7" transform="translate(1308.7 56) rotate(-180)"/>
          <rect class="cls-1" x="632.3" y="6.4" width="44" height="8.7" transform="translate(1308.7 21.5) rotate(-180)"/>
        </g>
      </g>
      <g>
        <g>
          <rect class="cls-1" x="804.1" y="23.6" width="44" height="8.7" transform="translate(854.1 -798.1) rotate(90)"/>
          <rect class="cls-1" x="786.9" y="23.6" width="44" height="8.7" transform="translate(836.9 -780.9) rotate(90)"/>
          <rect class="cls-1" x="769.6" y="23.6" width="44" height="8.7" transform="translate(819.6 -763.6) rotate(90)"/>
        </g>
        <g>
          <rect class="cls-1" x="735.1" y="40.9" width="44" height="8.7" transform="translate(1514.2 90.5) rotate(-180)"/>
          <rect class="cls-1" x="735.1" y="23.6" width="44" height="8.7" transform="translate(1514.2 56) rotate(-180)"/>
          <rect class="cls-1" x="735.1" y="6.4" width="44" height="8.7" transform="translate(1514.2 21.5) rotate(-180)"/>
        </g>
      </g>
    </g>
    <g>
      <g>
        <g>
          <rect class="cls-1" x="905.8" y="23.6" width="44" height="8.7" transform="translate(955.8 -899.8) rotate(90)"/>
          <rect class="cls-1" x="888.5" y="23.6" width="44" height="8.7" transform="translate(938.5 -882.5) rotate(90)"/>
          <rect class="cls-1" x="871.2" y="23.6" width="44" height="8.7" transform="translate(921.2 -865.2) rotate(90)"/>
        </g>
        <g>
          <rect class="cls-1" x="836.7" y="40.9" width="44" height="8.7" transform="translate(1717.5 90.5) rotate(-180)"/>
          <rect class="cls-1" x="836.7" y="23.6" width="44" height="8.7" transform="translate(1717.5 56) rotate(-180)"/>
          <rect class="cls-1" x="836.7" y="6.4" width="44" height="8.7" transform="translate(1717.5 21.5) rotate(-180)"/>
        </g>
      </g>
      <g>
        <g>
          <rect class="cls-1" x="1008.5" y="23.6" width="44" height="8.7" transform="translate(1058.5 -1002.5) rotate(90)"/>
          <rect class="cls-1" x="991.3" y="23.6" width="44" height="8.7" transform="translate(1041.3 -985.3) rotate(90)"/>
          <rect class="cls-1" x="974" y="23.6" width="44" height="8.7" transform="translate(1024 -968) rotate(90)"/>
        </g>
        <g>
          <rect class="cls-1" x="939.5" y="40.9" width="44" height="8.7" transform="translate(1923 90.5) rotate(-180)"/>
          <rect class="cls-1" x="939.5" y="23.6" width="44" height="8.7" transform="translate(1923 56) rotate(-180)"/>
          <rect class="cls-1" x="939.5" y="6.4" width="44" height="8.7" transform="translate(1923 21.5) rotate(-180)"/>
        </g>
      </g>
    </g>
    <g>
      <g>
        <g>
          <rect class="cls-1" x="1111.5" y="23.6" width="44" height="8.7" transform="translate(1161.5 -1105.5) rotate(90)"/>
          <rect class="cls-1" x="1094.2" y="23.6" width="44" height="8.7" transform="translate(1144.2 -1088.2) rotate(90)"/>
          <rect class="cls-1" x="1077" y="23.6" width="44" height="8.7" transform="translate(1127 -1071) rotate(90)"/>
        </g>
        <g>
          <rect class="cls-1" x="1042.5" y="40.9" width="44" height="8.7" transform="translate(2128.9 90.5) rotate(-180)"/>
          <rect class="cls-1" x="1042.5" y="23.6" width="44" height="8.7" transform="translate(2128.9 56) rotate(-180)"/>
          <rect class="cls-1" x="1042.5" y="6.4" width="44" height="8.7" transform="translate(2128.9 21.5) rotate(-180)"/>
        </g>
      </g>
      <g>
        <g>
          <rect class="cls-1" x="1214.2" y="23.6" width="44" height="8.7" transform="translate(1264.2 -1208.2) rotate(90)"/>
          <rect class="cls-1" x="1197" y="23.6" width="44" height="8.7" transform="translate(1247 -1191) rotate(90)"/>
          <rect class="cls-1" x="1179.7" y="23.6" width="44" height="8.7" transform="translate(1229.7 -1173.7) rotate(90)"/>
        </g>
        <g>
          <rect class="cls-1" x="1145.2" y="40.9" width="44" height="8.7" transform="translate(2334.4 90.5) rotate(-180)"/>
          <rect class="cls-1" x="1145.2" y="23.6" width="44" height="8.7" transform="translate(2334.4 56) rotate(-180)"/>
          <rect class="cls-1" x="1145.2" y="6.4" width="44" height="8.7" transform="translate(2334.4 21.5) rotate(-180)"/>
        </g>
      </g>
    </g>
  </g>
  <g>
    <g>
      <g>
        <g>
          <rect class="cls-1" x="1323.1" y="23.6" width="44" height="8.7" transform="translate(1373.1 -1317.1) rotate(90)"/>
          <rect class="cls-1" x="1305.8" y="23.6" width="44" height="8.7" transform="translate(1355.8 -1299.8) rotate(90)"/>
          <rect class="cls-1" x="1288.6" y="23.6" width="44" height="8.7" transform="translate(1338.6 -1282.6) rotate(90)"/>
        </g>
        <g>
          <rect class="cls-1" x="1254" y="40.9" width="44" height="8.7" transform="translate(2552.1 90.5) rotate(-180)"/>
          <rect class="cls-1" x="1254" y="23.6" width="44" height="8.7" transform="translate(2552.1 56) rotate(-180)"/>
          <rect class="cls-1" x="1254" y="6.4" width="44" height="8.7" transform="translate(2552.1 21.5) rotate(-180)"/>
        </g>
      </g>
      <g>
        <g>
          <rect class="cls-1" x="1425.8" y="23.6" width="44" height="8.7" transform="translate(1475.8 -1419.8) rotate(90)"/>
          <rect class="cls-1" x="1408.6" y="23.6" width="44" height="8.7" transform="translate(1458.6 -1402.6) rotate(90)"/>
          <rect class="cls-1" x="1391.3" y="23.6" width="44" height="8.7" transform="translate(1441.3 -1385.3) rotate(90)"/>
        </g>
        <g>
          <rect class="cls-1" x="1356.8" y="40.9" width="44" height="8.7" transform="translate(2757.6 90.5) rotate(-180)"/>
          <rect class="cls-1" x="1356.8" y="23.6" width="44" height="8.7" transform="translate(2757.6 56) rotate(-180)"/>
          <rect class="cls-1" x="1356.8" y="6.4" width="44" height="8.7" transform="translate(2757.6 21.5) rotate(-180)"/>
        </g>
      </g>
    </g>
    <g>
      <g>
        <g>
          <rect class="cls-1" x="1527.5" y="23.6" width="44" height="8.7" transform="translate(1577.5 -1521.5) rotate(90)"/>
          <rect class="cls-1" x="1510.2" y="23.6" width="44" height="8.7" transform="translate(1560.2 -1504.2) rotate(90)"/>
          <rect class="cls-1" x="1492.9" y="23.6" width="44" height="8.7" transform="translate(1542.9 -1486.9) rotate(90)"/>
        </g>
        <g>
          <rect class="cls-1" x="1458.4" y="40.9" width="44" height="8.7" transform="translate(2960.8 90.5) rotate(-180)"/>
          <rect class="cls-1" x="1458.4" y="23.6" width="44" height="8.7" transform="translate(2960.8 56) rotate(-180)"/>
          <rect class="cls-1" x="1458.4" y="6.4" width="44" height="8.7" transform="translate(2960.8 21.5) rotate(-180)"/>
        </g>
      </g>
      <g>
        <g>
          <rect class="cls-1" x="1630.2" y="23.6" width="44" height="8.7" transform="translate(1680.2 -1624.2) rotate(90)"/>
          <rect class="cls-1" x="1613" y="23.6" width="44" height="8.7" transform="translate(1663 -1607) rotate(90)"/>
          <rect class="cls-1" x="1595.7" y="23.6" width="44" height="8.7" transform="translate(1645.7 -1589.7) rotate(90)"/>
        </g>
        <g>
          <rect class="cls-1" x="1561.2" y="40.9" width="44" height="8.7" transform="translate(3166.4 90.5) rotate(-180)"/>
          <rect class="cls-1" x="1561.2" y="23.6" width="44" height="8.7" transform="translate(3166.4 56) rotate(-180)"/>
          <rect class="cls-1" x="1561.2" y="6.4" width="44" height="8.7" transform="translate(3166.4 21.5) rotate(-180)"/>
        </g>
      </g>
    </g>
    <g>
      <g>
        <g>
          <rect class="cls-1" x="1733.2" y="23.6" width="44" height="8.7" transform="translate(1783.2 -1727.2) rotate(90)"/>
          <rect class="cls-1" x="1715.9" y="23.6" width="44" height="8.7" transform="translate(1765.9 -1709.9) rotate(90)"/>
          <rect class="cls-1" x="1698.7" y="23.6" width="44" height="8.7" transform="translate(1748.7 -1692.7) rotate(90)"/>
        </g>
        <g>
          <rect class="cls-1" x="1664.2" y="40.9" width="44" height="8.7" transform="translate(3372.3 90.5) rotate(-180)"/>
          <rect class="cls-1" x="1664.2" y="23.6" width="44" height="8.7" transform="translate(3372.3 56) rotate(-180)"/>
          <rect class="cls-1" x="1664.2" y="6.4" width="44" height="8.7" transform="translate(3372.3 21.5) rotate(-180)"/>
        </g>
      </g>
      <g>
        <g>
          <rect class="cls-1" x="1835.9" y="23.6" width="44" height="8.7" transform="translate(1885.9 -1829.9) rotate(90)"/>
          <rect class="cls-1" x="1818.7" y="23.6" width="44" height="8.7" transform="translate(1868.7 -1812.7) rotate(90)"/>
          <rect class="cls-1" x="1801.4" y="23.6" width="44" height="8.7" transform="translate(1851.4 -1795.4) rotate(90)"/>
        </g>
        <g>
          <rect class="cls-1" x="1766.9" y="40.9" width="44" height="8.7" transform="translate(3577.8 90.5) rotate(-180)"/>
          <rect class="cls-1" x="1766.9" y="23.6" width="44" height="8.7" transform="translate(3577.8 56) rotate(-180)"/>
          <rect class="cls-1" x="1766.9" y="6.4" width="44" height="8.7" transform="translate(3577.8 21.5) rotate(-180)"/>
        </g>
      </g>
    </g>
  </g>
</svg>