<?xml version="1.0" encoding="UTF-8"?>
<svg id="Layer_1" data-name="Layer 1" xmlns="http://www.w3.org/2000/svg" version="1.1" viewBox="0 0 1871 56">
  <defs>
    <style>
      .cls-1 {
        fill: #fff;
        stroke-width: 0px;
      }
    </style>
  </defs>
  <g>
    <g>
      <g>
        <g>
          <rect class="cls-1" x="75.1" y="23.6" width="44.3" height="8.8" transform="translate(125.2 -69.2) rotate(90)"/>
          <rect class="cls-1" x="57.7" y="23.6" width="44.3" height="8.8" transform="translate(107.8 -51.8) rotate(90)"/>
          <rect class="cls-1" x="40.4" y="23.6" width="44.3" height="8.8" transform="translate(90.5 -34.5) rotate(90)"/>
        </g>
        <g>
          <rect class="cls-1" x="5.6" y="41" width="44.3" height="8.8" transform="translate(55.5 90.7) rotate(-180)"/>
          <rect class="cls-1" x="5.6" y="23.6" width="44.3" height="8.8" transform="translate(55.5 56) rotate(-180)"/>
          <rect class="cls-1" x="5.6" y="6.2" width="44.3" height="8.8" transform="translate(55.5 21.3) rotate(-180)"/>
        </g>
      </g>
      <g>
        <g>
          <rect class="cls-1" x="178.4" y="23.6" width="44.3" height="8.8" transform="translate(228.6 -172.6) rotate(90)"/>
          <rect class="cls-1" x="161.1" y="23.6" width="44.3" height="8.8" transform="translate(211.2 -155.2) rotate(90)"/>
          <rect class="cls-1" x="143.7" y="23.6" width="44.3" height="8.8" transform="translate(193.8 -137.8) rotate(90)"/>
        </g>
        <g>
          <rect class="cls-1" x="109" y="41" width="44.3" height="8.8" transform="translate(262.2 90.7) rotate(-180)"/>
          <rect class="cls-1" x="109" y="23.6" width="44.3" height="8.8" transform="translate(262.2 56) rotate(-180)"/>
          <rect class="cls-1" x="109" y="6.2" width="44.3" height="8.8" transform="translate(262.2 21.3) rotate(-180)"/>
        </g>
      </g>
    </g>
    <g>
      <g>
        <g>
          <rect class="cls-1" x="280.7" y="23.6" width="44.3" height="8.8" transform="translate(330.8 -274.8) rotate(90)"/>
          <rect class="cls-1" x="263.3" y="23.6" width="44.3" height="8.8" transform="translate(313.4 -257.4) rotate(90)"/>
          <rect class="cls-1" x="245.9" y="23.6" width="44.3" height="8.8" transform="translate(296.1 -240.1) rotate(90)"/>
        </g>
        <g>
          <rect class="cls-1" x="211.2" y="41" width="44.3" height="8.8" transform="translate(466.7 90.7) rotate(-180)"/>
          <rect class="cls-1" x="211.2" y="23.6" width="44.3" height="8.8" transform="translate(466.7 56) rotate(-180)"/>
          <rect class="cls-1" x="211.2" y="6.2" width="44.3" height="8.8" transform="translate(466.7 21.3) rotate(-180)"/>
        </g>
      </g>
      <g>
        <g>
          <rect class="cls-1" x="384" y="23.6" width="44.3" height="8.8" transform="translate(434.1 -378.1) rotate(90)"/>
          <rect class="cls-1" x="366.6" y="23.6" width="44.3" height="8.8" transform="translate(416.8 -360.8) rotate(90)"/>
          <rect class="cls-1" x="349.3" y="23.6" width="44.3" height="8.8" transform="translate(399.4 -343.4) rotate(90)"/>
        </g>
        <g>
          <rect class="cls-1" x="314.6" y="41" width="44.3" height="8.8" transform="translate(673.4 90.7) rotate(-180)"/>
          <rect class="cls-1" x="314.6" y="23.6" width="44.3" height="8.8" transform="translate(673.4 56) rotate(-180)"/>
          <rect class="cls-1" x="314.6" y="6.2" width="44.3" height="8.8" transform="translate(673.4 21.3) rotate(-180)"/>
        </g>
      </g>
    </g>
    <g>
      <g>
        <g>
          <rect class="cls-1" x="487.6" y="23.6" width="44.3" height="8.8" transform="translate(537.7 -481.7) rotate(90)"/>
          <rect class="cls-1" x="470.2" y="23.6" width="44.3" height="8.8" transform="translate(520.3 -464.3) rotate(90)"/>
          <rect class="cls-1" x="452.9" y="23.6" width="44.3" height="8.8" transform="translate(503 -447) rotate(90)"/>
        </g>
        <g>
          <rect class="cls-1" x="418.1" y="41" width="44.3" height="8.8" transform="translate(880.5 90.7) rotate(-180)"/>
          <rect class="cls-1" x="418.1" y="23.6" width="44.3" height="8.8" transform="translate(880.5 56) rotate(-180)"/>
          <rect class="cls-1" x="418.1" y="6.2" width="44.3" height="8.8" transform="translate(880.5 21.3) rotate(-180)"/>
        </g>
      </g>
      <g>
        <g>
          <rect class="cls-1" x="590.9" y="23.6" width="44.3" height="8.8" transform="translate(641.1 -585.1) rotate(90)"/>
          <rect class="cls-1" x="573.6" y="23.6" width="44.3" height="8.8" transform="translate(623.7 -567.7) rotate(90)"/>
          <rect class="cls-1" x="556.2" y="23.6" width="44.3" height="8.8" transform="translate(606.3 -550.3) rotate(90)"/>
        </g>
        <g>
          <rect class="cls-1" x="521.5" y="41" width="44.3" height="8.8" transform="translate(1087.2 90.7) rotate(-180)"/>
          <rect class="cls-1" x="521.5" y="23.6" width="44.3" height="8.8" transform="translate(1087.2 56) rotate(-180)"/>
          <rect class="cls-1" x="521.5" y="6.2" width="44.3" height="8.8" transform="translate(1087.2 21.3) rotate(-180)"/>
        </g>
      </g>
    </g>
  </g>
  <g>
    <g>
      <g>
        <g>
          <rect class="cls-1" x="700" y="23.6" width="44.3" height="8.8" transform="translate(750.1 -694.1) rotate(90)"/>
          <rect class="cls-1" x="682.6" y="23.6" width="44.3" height="8.8" transform="translate(732.8 -676.8) rotate(90)"/>
          <rect class="cls-1" x="665.3" y="23.6" width="44.3" height="8.8" transform="translate(715.4 -659.4) rotate(90)"/>
        </g>
        <g>
          <rect class="cls-1" x="630.6" y="41" width="44.3" height="8.8" transform="translate(1305.4 90.7) rotate(-180)"/>
          <rect class="cls-1" x="630.6" y="23.6" width="44.3" height="8.8" transform="translate(1305.4 56) rotate(-180)"/>
          <rect class="cls-1" x="630.6" y="6.2" width="44.3" height="8.8" transform="translate(1305.4 21.3) rotate(-180)"/>
        </g>
      </g>
      <g>
        <g>
          <rect class="cls-1" x="803.4" y="23.6" width="44.3" height="8.8" transform="translate(853.5 -797.5) rotate(90)"/>
          <rect class="cls-1" x="786" y="23.6" width="44.3" height="8.8" transform="translate(836.1 -780.1) rotate(90)"/>
          <rect class="cls-1" x="768.6" y="23.6" width="44.3" height="8.8" transform="translate(818.8 -762.8) rotate(90)"/>
        </g>
        <g>
          <rect class="cls-1" x="733.9" y="41" width="44.3" height="8.8" transform="translate(1512.1 90.7) rotate(-180)"/>
          <rect class="cls-1" x="733.9" y="23.6" width="44.3" height="8.8" transform="translate(1512.1 56) rotate(-180)"/>
          <rect class="cls-1" x="733.9" y="6.2" width="44.3" height="8.8" transform="translate(1512.1 21.3) rotate(-180)"/>
        </g>
      </g>
    </g>
    <g>
      <g>
        <g>
          <rect class="cls-1" x="905.6" y="23.6" width="44.3" height="8.8" transform="translate(955.7 -899.7) rotate(90)"/>
          <rect class="cls-1" x="888.2" y="23.6" width="44.3" height="8.8" transform="translate(938.4 -882.4) rotate(90)"/>
          <rect class="cls-1" x="870.9" y="23.6" width="44.3" height="8.8" transform="translate(921 -865) rotate(90)"/>
        </g>
        <g>
          <rect class="cls-1" x="836.1" y="41" width="44.3" height="8.8" transform="translate(1716.5 90.7) rotate(-180)"/>
          <rect class="cls-1" x="836.1" y="23.6" width="44.3" height="8.8" transform="translate(1716.5 56) rotate(-180)"/>
          <rect class="cls-1" x="836.1" y="6.2" width="44.3" height="8.8" transform="translate(1716.5 21.3) rotate(-180)"/>
        </g>
      </g>
      <g>
        <g>
          <rect class="cls-1" x="1008.9" y="23.6" width="44.3" height="8.8" transform="translate(1059.1 -1003.1) rotate(90)"/>
          <rect class="cls-1" x="991.6" y="23.6" width="44.3" height="8.8" transform="translate(1041.7 -985.7) rotate(90)"/>
          <rect class="cls-1" x="974.2" y="23.6" width="44.3" height="8.8" transform="translate(1024.3 -968.3) rotate(90)"/>
        </g>
        <g>
          <rect class="cls-1" x="939.5" y="41" width="44.3" height="8.8" transform="translate(1923.3 90.7) rotate(-180)"/>
          <rect class="cls-1" x="939.5" y="23.6" width="44.3" height="8.8" transform="translate(1923.3 56) rotate(-180)"/>
          <rect class="cls-1" x="939.5" y="6.2" width="44.3" height="8.8" transform="translate(1923.3 21.3) rotate(-180)"/>
        </g>
      </g>
    </g>
    <g>
      <g>
        <g>
          <rect class="cls-1" x="1112.5" y="23.6" width="44.3" height="8.8" transform="translate(1162.6 -1106.6) rotate(90)"/>
          <rect class="cls-1" x="1095.2" y="23.6" width="44.3" height="8.8" transform="translate(1145.3 -1089.3) rotate(90)"/>
          <rect class="cls-1" x="1077.8" y="23.6" width="44.3" height="8.8" transform="translate(1127.9 -1071.9) rotate(90)"/>
        </g>
        <g>
          <rect class="cls-1" x="1043.1" y="41" width="44.3" height="8.8" transform="translate(2130.4 90.7) rotate(-180)"/>
          <rect class="cls-1" x="1043.1" y="23.6" width="44.3" height="8.8" transform="translate(2130.4 56) rotate(-180)"/>
          <rect class="cls-1" x="1043.1" y="6.2" width="44.3" height="8.8" transform="translate(2130.4 21.3) rotate(-180)"/>
        </g>
      </g>
      <g>
        <g>
          <rect class="cls-1" x="1215.9" y="23.6" width="44.3" height="8.8" transform="translate(1266 -1210) rotate(90)"/>
          <rect class="cls-1" x="1198.5" y="23.6" width="44.3" height="8.8" transform="translate(1248.6 -1192.6) rotate(90)"/>
          <rect class="cls-1" x="1181.1" y="23.6" width="44.3" height="8.8" transform="translate(1231.3 -1175.3) rotate(90)"/>
        </g>
        <g>
          <rect class="cls-1" x="1146.4" y="41" width="44.3" height="8.8" transform="translate(2337.1 90.7) rotate(-180)"/>
          <rect class="cls-1" x="1146.4" y="23.6" width="44.3" height="8.8" transform="translate(2337.1 56) rotate(-180)"/>
          <rect class="cls-1" x="1146.4" y="6.2" width="44.3" height="8.8" transform="translate(2337.1 21.3) rotate(-180)"/>
        </g>
      </g>
    </g>
  </g>
  <g>
    <g>
      <g>
        <g>
          <rect class="cls-1" x="1325.3" y="23.6" width="44.3" height="8.8" transform="translate(1375.5 -1319.5) rotate(90)"/>
          <rect class="cls-1" x="1308" y="23.6" width="44.3" height="8.8" transform="translate(1358.1 -1302.1) rotate(90)"/>
          <rect class="cls-1" x="1290.6" y="23.6" width="44.3" height="8.8" transform="translate(1340.7 -1284.7) rotate(90)"/>
        </g>
        <g>
          <rect class="cls-1" x="1255.9" y="41" width="44.3" height="8.8" transform="translate(2556 90.7) rotate(-180)"/>
          <rect class="cls-1" x="1255.9" y="23.6" width="44.3" height="8.8" transform="translate(2556 56) rotate(-180)"/>
          <rect class="cls-1" x="1255.9" y="6.2" width="44.3" height="8.8" transform="translate(2556 21.3) rotate(-180)"/>
        </g>
      </g>
      <g>
        <g>
          <rect class="cls-1" x="1428.7" y="23.6" width="44.3" height="8.8" transform="translate(1478.8 -1422.8) rotate(90)"/>
          <rect class="cls-1" x="1411.3" y="23.6" width="44.3" height="8.8" transform="translate(1461.4 -1405.4) rotate(90)"/>
          <rect class="cls-1" x="1394" y="23.6" width="44.3" height="8.8" transform="translate(1444.1 -1388.1) rotate(90)"/>
        </g>
        <g>
          <rect class="cls-1" x="1359.2" y="41" width="44.3" height="8.8" transform="translate(2762.7 90.7) rotate(-180)"/>
          <rect class="cls-1" x="1359.2" y="23.6" width="44.3" height="8.8" transform="translate(2762.7 56) rotate(-180)"/>
          <rect class="cls-1" x="1359.2" y="6.2" width="44.3" height="8.8" transform="translate(2762.7 21.3) rotate(-180)"/>
        </g>
      </g>
    </g>
    <g>
      <g>
        <g>
          <rect class="cls-1" x="1530.9" y="23.6" width="44.3" height="8.8" transform="translate(1581 -1525) rotate(90)"/>
          <rect class="cls-1" x="1513.5" y="23.6" width="44.3" height="8.8" transform="translate(1563.7 -1507.7) rotate(90)"/>
          <rect class="cls-1" x="1496.2" y="23.6" width="44.3" height="8.8" transform="translate(1546.3 -1490.3) rotate(90)"/>
        </g>
        <g>
          <rect class="cls-1" x="1461.5" y="41" width="44.3" height="8.8" transform="translate(2967.2 90.7) rotate(-180)"/>
          <rect class="cls-1" x="1461.5" y="23.6" width="44.3" height="8.8" transform="translate(2967.2 56) rotate(-180)"/>
          <rect class="cls-1" x="1461.5" y="6.2" width="44.3" height="8.8" transform="translate(2967.2 21.3) rotate(-180)"/>
        </g>
      </g>
      <g>
        <g>
          <rect class="cls-1" x="1634.3" y="23.6" width="44.3" height="8.8" transform="translate(1684.4 -1628.4) rotate(90)"/>
          <rect class="cls-1" x="1616.9" y="23.6" width="44.3" height="8.8" transform="translate(1667 -1611) rotate(90)"/>
          <rect class="cls-1" x="1599.5" y="23.6" width="44.3" height="8.8" transform="translate(1649.7 -1593.7) rotate(90)"/>
        </g>
        <g>
          <rect class="cls-1" x="1564.8" y="41" width="44.3" height="8.8" transform="translate(3173.9 90.7) rotate(-180)"/>
          <rect class="cls-1" x="1564.8" y="23.6" width="44.3" height="8.8" transform="translate(3173.9 56) rotate(-180)"/>
          <rect class="cls-1" x="1564.8" y="6.2" width="44.3" height="8.8" transform="translate(3173.9 21.3) rotate(-180)"/>
        </g>
      </g>
    </g>
    <g>
      <g>
        <g>
          <rect class="cls-1" x="1737.8" y="23.6" width="44.3" height="8.8" transform="translate(1788 -1732) rotate(90)"/>
          <rect class="cls-1" x="1720.5" y="23.6" width="44.3" height="8.8" transform="translate(1770.6 -1714.6) rotate(90)"/>
          <rect class="cls-1" x="1703.1" y="23.6" width="44.3" height="8.8" transform="translate(1753.2 -1697.2) rotate(90)"/>
        </g>
        <g>
          <rect class="cls-1" x="1668.4" y="41" width="44.3" height="8.8" transform="translate(3381 90.7) rotate(-180)"/>
          <rect class="cls-1" x="1668.4" y="23.6" width="44.3" height="8.8" transform="translate(3381 56) rotate(-180)"/>
          <rect class="cls-1" x="1668.4" y="6.2" width="44.3" height="8.8" transform="translate(3381 21.3) rotate(-180)"/>
        </g>
      </g>
      <g>
        <g>
          <rect class="cls-1" x="1841.2" y="23.6" width="44.3" height="8.8" transform="translate(1891.3 -1835.3) rotate(90)"/>
          <rect class="cls-1" x="1823.8" y="23.6" width="44.3" height="8.8" transform="translate(1874 -1818) rotate(90)"/>
          <rect class="cls-1" x="1806.5" y="23.6" width="44.3" height="8.8" transform="translate(1856.6 -1800.6) rotate(90)"/>
        </g>
        <g>
          <rect class="cls-1" x="1771.7" y="41" width="44.3" height="8.8" transform="translate(3587.8 90.7) rotate(-180)"/>
          <rect class="cls-1" x="1771.7" y="23.6" width="44.3" height="8.8" transform="translate(3587.8 56) rotate(-180)"/>
          <rect class="cls-1" x="1771.7" y="6.2" width="44.3" height="8.8" transform="translate(3587.8 21.3) rotate(-180)"/>
        </g>
      </g>
    </g>
  </g>
</svg>