<svg id="Layer_1" data-name="Layer 1" xmlns="http://www.w3.org/2000/svg" viewBox="0 0 40 40"><defs><style>.cls-1{fill:none;}.cls-2{fill:#fff;}.cls-3{fill:#44883e;}</style></defs><rect class="cls-1" width="40" height="40"/><path class="cls-2" d="M13.84,10.39H8.3A.42.42,0,0,1,8,9.67l5.54-5.55A.45.45,0,0,1,14,4a.44.44,0,0,1,.26.39V10A.42.42,0,0,1,13.84,10.39ZM9.32,9.55h4.1V5.45Z"/><path class="cls-2" d="M31.7,36H8.3a.42.42,0,0,1-.42-.42V10A.42.42,0,0,1,8,9.67l5.54-5.55a.42.42,0,0,1,.3-.12H31.7a.42.42,0,0,1,.42.42V35.58A.42.42,0,0,1,31.7,36Zm-23-.85H31.28V4.85H14l-5.3,5.29Z"/><path class="cls-2" d="M27.47,14.23H16.94a.43.43,0,0,1,0-.85H27.47a.43.43,0,0,1,0,.85Z"/><path class="cls-2" d="M27.47,19.78H12.53a.43.43,0,0,1,0-.85H27.47a.43.43,0,0,1,0,.85Z"/><path class="cls-2" d="M27.47,25.33H12.53a.43.43,0,0,1,0-.85H27.47a.43.43,0,0,1,0,.85Z"/><path class="cls-2" d="M22.05,30.88H12.53a.43.43,0,0,1,0-.85h9.52a.43.43,0,0,1,0,.85Z"/><path class="cls-2" d="M31.28,39.43A5.33,5.33,0,1,1,36.6,34.1,5.33,5.33,0,0,1,31.28,39.43Zm0-10A4.68,4.68,0,1,0,36,34.1,4.68,4.68,0,0,0,31.28,29.43Z"/><circle class="cls-2" cx="31.28" cy="34.1" r="4.68"/><path class="cls-3" d="M31.28,38.79A4.69,4.69,0,1,1,36,34.1,4.69,4.69,0,0,1,31.28,38.79Zm0-8.8a4.12,4.12,0,1,0,4.11,4.11A4.12,4.12,0,0,0,31.28,30Z"/><circle class="cls-3" cx="31.28" cy="34.1" r="4.11"/><path class="cls-2" d="M33.9,34.46H28.65c-.13,0-.23-.16-.23-.36s.1-.35.23-.35H33.9c.13,0,.24.16.24.35S34,34.46,33.9,34.46Z"/><path class="cls-2" d="M30.92,36.73V31.48c0-.13.16-.23.36-.23s.35.1.35.23v5.25c0,.13-.16.23-.35.23S30.92,36.86,30.92,36.73Z"/></svg>