<svg id="Layer_1" data-name="Layer 1" xmlns="http://www.w3.org/2000/svg" viewBox="0 0 40 40"><defs><style>.cls-1{fill:none;}.cls-2{fill:#fff;}</style></defs><rect class="cls-1" width="40" height="40"/><path class="cls-2" d="M33.61,32.94H6.39A2.4,2.4,0,0,1,4,30.55V9.45A2.4,2.4,0,0,1,6.39,7.06H33.61A2.4,2.4,0,0,1,36,9.45v21.1A2.4,2.4,0,0,1,33.61,32.94ZM6.39,7.89A1.56,1.56,0,0,0,4.83,9.45v21.1a1.56,1.56,0,0,0,1.56,1.56H33.61a1.56,1.56,0,0,0,1.56-1.56V9.45a1.56,1.56,0,0,0-1.56-1.56Z"/><path class="cls-2" d="M35.59,12.73H4.41A.41.41,0,0,1,4,12.32V9.45A2.4,2.4,0,0,1,6.39,7.06H33.61A2.4,2.4,0,0,1,36,9.45v2.87A.41.41,0,0,1,35.59,12.73ZM4.83,11.91H35.17V9.45a1.56,1.56,0,0,0-1.56-1.56H6.39A1.56,1.56,0,0,0,4.83,9.45Z"/><path class="cls-2" d="M10.64,10.31h-.08l-.08,0-.07,0-.06-.05a.41.41,0,0,1,0-.58.42.42,0,0,1,.37-.12l.08,0,.07,0,.06,0a.41.41,0,0,1-.29.7Z"/><path class="cls-2" d="M6.79,10.31a.42.42,0,0,1-.29-.12.41.41,0,0,1,0-.58.43.43,0,0,1,.37-.12l.08,0,.07,0a.15.15,0,0,1,.06,0,.39.39,0,0,1,.13.29.41.41,0,0,1-.13.29.15.15,0,0,1-.06.05l-.07,0-.08,0Z"/><path class="cls-2" d="M8.72,10.31H8.64l-.08,0-.07,0a.18.18,0,0,1-.07-.05.42.42,0,0,1,.38-.7l.07,0,.08,0,.06,0a.38.38,0,0,1,.12.29.4.4,0,0,1-.12.29L9,10.24l-.08,0-.07,0Z"/></svg>