<svg id="Layer_1" data-name="Layer 1" xmlns="http://www.w3.org/2000/svg" viewBox="0 0 40 40"><defs><style>.cls-1,.cls-2{fill:none;}.cls-2{stroke:#fff;stroke-miterlimit:10;}</style></defs><rect class="cls-1" width="40" height="40"/><polygon class="cls-2" points="6.58 22.22 33.42 22.22 33.42 8.22 6.58 8.22 6.58 22.22 6.58 22.22"/><path class="cls-2" d="M20,19.78c1.89,0,3.42-2,3.42-4.56S21.89,10.66,20,10.66s-3.42,2-3.42,4.56,1.53,4.56,3.42,4.56Z"/><path class="cls-2" d="M11.47,21.6a4.22,4.22,0,0,0-4.22-4.21"/><path class="cls-2" d="M28.53,21.6a4.22,4.22,0,0,1,4.22-4.21"/><path class="cls-2" d="M11.47,8.84a4.22,4.22,0,0,1-4.22,4.21"/><path class="cls-2" d="M28.53,8.84a4.22,4.22,0,0,0,4.22,4.21"/><path class="cls-2" d="M13.16,16.1a.88.88,0,1,0-.89-.88.88.88,0,0,0,.89.88Z"/><path class="cls-2" d="M26.83,16.1a.88.88,0,1,0-.88-.88.87.87,0,0,0,.88.88Z"/><line class="cls-2" x1="6.67" y1="25.48" x2="33.33" y2="25.48"/><line class="cls-2" x1="6.67" y1="28.63" x2="33.33" y2="28.63"/><line class="cls-2" x1="6.67" y1="31.78" x2="33.33" y2="31.78"/></svg>