<svg id="Layer_1" data-name="Layer 1" xmlns="http://www.w3.org/2000/svg" viewBox="0 0 40 40"><defs><style>.cls-1{fill:none;}.cls-2{fill:#fff;}</style></defs><rect class="cls-1" width="40" height="40"/><path class="cls-2" d="M32.58,30.81H7.42A3.42,3.42,0,0,1,4,27.4V12.6A3.42,3.42,0,0,1,7.42,9.19H32.58A3.42,3.42,0,0,1,36,12.6V27.4A3.42,3.42,0,0,1,32.58,30.81ZM7.42,10.09A2.51,2.51,0,0,0,4.91,12.6V27.4a2.51,2.51,0,0,0,2.51,2.51H32.58a2.51,2.51,0,0,0,2.51-2.51V12.6a2.51,2.51,0,0,0-2.51-2.51Z"/><path class="cls-2" d="M35.55,17.42H4.45A.45.45,0,0,1,4,17V12.86a.46.46,0,0,1,.45-.46h31.1a.46.46,0,0,1,.45.46V17A.45.45,0,0,1,35.55,17.42Zm-30.64-.9H35.09V13.31H4.91Z"/><path class="cls-2" d="M10.11,27.6a2.17,2.17,0,1,1,2.18-2.17A2.17,2.17,0,0,1,10.11,27.6Zm0-3.44a1.27,1.27,0,1,0,1.27,1.27A1.27,1.27,0,0,0,10.11,24.16Z"/><path class="cls-2" d="M13.55,27.6a2.17,2.17,0,1,1,2.17-2.17A2.17,2.17,0,0,1,13.55,27.6Zm0-3.44a1.27,1.27,0,1,0,1.26,1.27A1.26,1.26,0,0,0,13.55,24.16Z"/></svg>