<svg id="Layer_1" data-name="Layer 1" xmlns="http://www.w3.org/2000/svg" viewBox="0 0 40 40"><defs><style>.cls-1,.cls-2{fill:none;}.cls-2{stroke:#fff;stroke-linecap:round;stroke-linejoin:round;}</style></defs><rect class="cls-1" width="40" height="40"/><rect class="cls-1" width="40" height="40"/><polygon class="cls-2" points="8.49 19.03 20.03 34.28 31.54 19.03 8.49 19.03 8.49 19.03"/><polyline class="cls-2" points="16.66 19.03 16.13 19.03 19.75 32.63 20 33.72 20.02 33.63 20.04 33.72 20.28 32.63 23.9 19.03"/><polyline class="cls-2" points="8.49 18.84 11.05 14.07 29.34 14.07 31.54 18.84"/><path class="cls-2" d="M13.83,14.07l2,4.57c.37.42.23.42.6,0l2-4.57"/><path class="cls-2" d="M21.54,14.07l2,4.57c.37.42.23.42.61,0l2-4.57"/><line class="cls-2" x1="19.94" y1="5.72" x2="19.94" y2="9.31"/><line class="cls-2" x1="11.99" y1="7.1" x2="13.51" y2="10.36"/><line class="cls-2" x1="5.57" y1="11.21" x2="8.32" y2="13.52"/><line class="cls-2" x1="27.91" y1="6.95" x2="26.39" y2="10.21"/><line class="cls-2" x1="34.43" y1="10.94" x2="31.68" y2="13.25"/></svg>