<svg id="Layer_1" data-name="Layer 1" xmlns="http://www.w3.org/2000/svg" viewBox="0 0 40 40"><defs><style>.cls-1{fill:none;}.cls-2{fill:#fff;}</style></defs><rect class="cls-1" width="40" height="40"/><path class="cls-2" d="M34.32,29.5H7a.37.37,0,0,1-.37-.38V9.59A.37.37,0,0,1,7,9.21a.38.38,0,0,1,.38.38V28.74h27a.38.38,0,1,1,0,.76Z"/><path class="cls-2" d="M8.26,11.26A.38.38,0,0,1,8,11.15l-1-1-1,1a.38.38,0,0,1-.54-.54l1.3-1.29a.39.39,0,0,1,.53,0l1.29,1.29a.38.38,0,0,1,0,.54A.39.39,0,0,1,8.26,11.26Z"/><path class="cls-2" d="M33,30.79a.39.39,0,0,1-.27-.11.37.37,0,0,1,0-.53l1-1-1-1a.38.38,0,0,1,0-.54.37.37,0,0,1,.53,0l1.3,1.29a.4.4,0,0,1,0,.54l-1.3,1.29A.38.38,0,0,1,33,30.79Z"/><path class="cls-2" d="M11,24a1.87,1.87,0,1,1,1.86-1.86A1.87,1.87,0,0,1,11,24Zm0-3a1.12,1.12,0,1,0,1.11,1.12A1.12,1.12,0,0,0,11,21Z"/><path class="cls-2" d="M18,18.59a1.87,1.87,0,1,1,1.87-1.87A1.87,1.87,0,0,1,18,18.59Zm0-3a1.12,1.12,0,1,0,1.12,1.11A1.11,1.11,0,0,0,18,15.61Z"/><path class="cls-2" d="M25.2,22.05a1.87,1.87,0,1,1,1.87-1.87A1.87,1.87,0,0,1,25.2,22.05Zm0-3a1.11,1.11,0,1,0,1.12,1.11A1.11,1.11,0,0,0,25.2,19.07Z"/><path class="cls-2" d="M30.51,13.21a1.87,1.87,0,1,1,1.86-1.87A1.87,1.87,0,0,1,30.51,13.21Zm0-3a1.12,1.12,0,1,0,1.11,1.11A1.12,1.12,0,0,0,30.51,10.23Z"/><path class="cls-2" d="M7,24a.38.38,0,0,1-.12-.73l2.51-.84a.37.37,0,0,1,.47.24.38.38,0,0,1-.23.48l-2.51.83A.25.25,0,0,1,7,24Z"/><path class="cls-2" d="M12.46,21.81a.36.36,0,0,1-.27-.12.37.37,0,0,1,0-.53l4.09-4a.37.37,0,0,1,.53,0,.38.38,0,0,1,0,.54l-4.09,4A.38.38,0,0,1,12.46,21.81Z"/><path class="cls-2" d="M23.71,20.21a.39.39,0,0,1-.18,0l-4.37-2.4a.38.38,0,0,1-.15-.51.37.37,0,0,1,.51-.15l4.37,2.4A.37.37,0,0,1,24,20,.37.37,0,0,1,23.71,20.21Z"/><path class="cls-2" d="M26.14,19.4a.31.31,0,0,1-.18,0,.38.38,0,0,1-.15-.51l3.53-6.44a.38.38,0,1,1,.66.36l-3.53,6.45A.36.36,0,0,1,26.14,19.4Z"/></svg>