<svg id="Layer_1" data-name="Layer 1" xmlns="http://www.w3.org/2000/svg" viewBox="0 0 40 40"><defs><style>.cls-1,.cls-2{fill:none;}.cls-2{stroke:#fff;stroke-linecap:round;stroke-linejoin:round;}</style></defs><rect class="cls-1" width="40" height="40"/><rect class="cls-1" width="40" height="40"/><path class="cls-2" d="M21,25.22,25,23.06c1-.51,2.83-1.28,2.84.62l.68-.47c1.93-1.32,3.4-.38,2.68,1.44,3.42-2.49,4.63.66,3.1,1.44l-7.57,4.78-3.21,2c-2.28,1.44-5.28,1.46-6.12,1-4.8-1.24-6.18-2.42-10.36-1.88M5,23.45l5-2a3.85,3.85,0,0,1,3.22,0l2.68,2c3.73,2.76,4,2.07,8.42,2.33,1,.06,1.61,1.62,0,2.24-4.1,1.88-6.63,1-10.36-.87M28.41,10.31,20,5.84l-8.41,4.47ZM11.86,19H28.14M17.62,14.66h4.45m-9-4.3V19m13.57-8.66V19m-4.56-4.33V19m-4.45-4.33V19"/></svg>