<svg id="Layer_1" data-name="Layer 1" xmlns="http://www.w3.org/2000/svg" viewBox="0 0 40 40"><defs><style>.cls-1,.cls-2{fill:none;}.cls-2,.cls-3{stroke:#fffdfd;}.cls-2{stroke-linecap:round;stroke-linejoin:round;}.cls-3{stroke-miterlimit:22.93;fill-rule:evenodd;}</style></defs><rect class="cls-1" width="40" height="40"/><rect class="cls-1" width="40" height="40"/><path class="cls-2" d="M9.29,4.6H30.71a1,1,0,0,1,1,1V34.44a1,1,0,0,1-1,1H9.29a1,1,0,0,1-1-1V5.56a1,1,0,0,1,1-1Z"/><line class="cls-2" x1="14.15" y1="15.2" x2="14.15" y2="20.52"/><line class="cls-2" x1="11.49" y1="17.86" x2="16.81" y2="17.86"/><line class="cls-2" x1="27.5" y1="15.99" x2="23.74" y2="19.75"/><line class="cls-2" x1="12.27" y1="27.72" x2="16.03" y2="31.48"/><line class="cls-2" x1="12.27" y1="31.48" x2="16.03" y2="27.72"/><line class="cls-2" x1="8.45" y1="23.57" x2="31.55" y2="23.57"/><line class="cls-2" x1="20" y1="12.02" x2="20" y2="35.13"/><line class="cls-2" x1="23.17" y1="28.17" x2="28.49" y2="28.17"/><line class="cls-2" x1="23.17" y1="31.03" x2="28.49" y2="31.03"/><path class="cls-3" d="M23.3,15.37a.65.65,0,0,0,0,.91.63.63,0,0,0,.9,0,.65.65,0,0,0,0-.91.65.65,0,0,0-.9,0Z"/><path class="cls-3" d="M27.27,19.35a.63.63,0,0,0,0,.9.65.65,0,0,0,.91,0,.65.65,0,0,0,0-.9.65.65,0,0,0-.91,0Z"/><line class="cls-2" x1="8.45" y1="11.74" x2="31.55" y2="11.74"/></svg>