<svg id="Layer_1" data-name="Layer 1" xmlns="http://www.w3.org/2000/svg" viewBox="0 0 40 40"><defs><style>.cls-1{fill:none;}.cls-2{fill:#fff;}</style></defs><rect class="cls-1" width="40" height="40"/><path class="cls-2" d="M26.65,36H13.35a3.3,3.3,0,0,1-3.3-3.3V7.3A3.3,3.3,0,0,1,13.35,4h13.3A3.3,3.3,0,0,1,30,7.3V32.7A3.3,3.3,0,0,1,26.65,36ZM13.35,5A2.31,2.31,0,0,0,11,7.3V32.7A2.31,2.31,0,0,0,13.35,35h13.3A2.31,2.31,0,0,0,29,32.7V7.3A2.31,2.31,0,0,0,26.65,5Z"/><path class="cls-2" d="M29.46,30.92H10.54a.49.49,0,0,1-.49-.49V8.93a.49.49,0,0,1,.49-.49H29.46a.49.49,0,0,1,.49.49v21.5A.49.49,0,0,1,29.46,30.92ZM11,29.94H29V9.42H11Z"/><path class="cls-2" d="M21.74,7.22H18.26a.49.49,0,0,1-.49-.49.5.5,0,0,1,.49-.5h3.48a.5.5,0,0,1,.49.5A.49.49,0,0,1,21.74,7.22Z"/><path class="cls-2" d="M20.29,33.53h-.58a.49.49,0,0,1,0-1h.58a.49.49,0,0,1,0,1Z"/></svg>