<svg id="Layer_1" data-name="Layer 1" xmlns="http://www.w3.org/2000/svg" viewBox="0 0 40 40"><defs><style>.cls-1{fill:none;}.cls-2{fill:#fff;}.cls-3{fill:#44883e;}</style></defs><rect class="cls-1" width="40" height="40"/><path class="cls-2" d="M35.64,14.59H4.36a.41.41,0,0,1-.4-.32.4.4,0,0,1,.21-.46l15.64-8a.42.42,0,0,1,.38,0l15.64,8a.4.4,0,0,1,.21.46A.41.41,0,0,1,35.64,14.59ZM6.07,13.76H33.93L20,6.66Z"/><path class="cls-2" d="M35.64,34.21H4.36a.41.41,0,1,1,0-.82H35.64a.41.41,0,1,1,0,.82Z"/><path class="cls-2" d="M33.91,32H6.09a.42.42,0,1,1,0-.83H33.91a.42.42,0,1,1,0,.83Z"/><path class="cls-2" d="M11.5,32H8.74a.42.42,0,0,1-.42-.42V14.17a.42.42,0,0,1,.42-.41H11.5a.41.41,0,0,1,.41.41V31.54A.41.41,0,0,1,11.5,32Zm-2.35-.83h1.94V14.59H9.15Z"/><path class="cls-2" d="M21.38,32H18.62a.42.42,0,0,1-.42-.42V14.17a.42.42,0,0,1,.42-.41h2.76a.42.42,0,0,1,.42.41V31.54A.42.42,0,0,1,21.38,32ZM19,31.13H21V14.59H19Z"/><path class="cls-2" d="M31.26,32H28.5a.41.41,0,0,1-.41-.42V14.17a.41.41,0,0,1,.41-.41h2.76a.42.42,0,0,1,.42.41V31.54A.42.42,0,0,1,31.26,32Zm-2.35-.83h1.94V14.59H28.91Z"/><path class="cls-2" d="M31.31,37.72a5.33,5.33,0,1,1,5.33-5.33A5.33,5.33,0,0,1,31.31,37.72Zm0-10A4.68,4.68,0,1,0,36,32.39,4.68,4.68,0,0,0,31.31,27.72Z"/><circle class="cls-3" cx="31.31" cy="32.39" r="4.68"/><path class="cls-2" d="M33.94,32.75H28.69c-.13,0-.24-.16-.24-.36s.11-.35.24-.35h5.25c.13,0,.23.16.23.35S34.07,32.75,33.94,32.75Z"/><path class="cls-2" d="M31,35V29.77c0-.13.16-.23.36-.23s.36.1.36.23V35c0,.13-.16.23-.36.23S31,35.15,31,35Z"/></svg>