<svg id="Layer_1" data-name="Layer 1" xmlns="http://www.w3.org/2000/svg" viewBox="0 0 40 40"><defs><style>.cls-1,.cls-2{fill:none;}.cls-2{stroke:#fff;stroke-miterlimit:10;}</style></defs><rect class="cls-1" width="40" height="40"/><path class="cls-2" d="M24.4,13.41V31.93a1,1,0,0,1-1,1h-16a1,1,0,0,1-1-1V8.07a1,1,0,0,1,1-1H18.08"/><path class="cls-2" d="M24.4,13.41H19.05a1,1,0,0,1-1-1V7.1l6.32,6.31Z"/><path class="cls-2" d="M27.83,10.34h3.46v18c0,3.58-3.46,3.58-3.46,0V10.34Z"/><polyline class="cls-2" points="33.54 19.87 33.56 13.16 27.81 13.16"/><line class="cls-2" x1="29.51" y1="32.9" x2="29.51" y2="30.97"/><line class="cls-2" x1="10.32" y1="12.29" x2="15.42" y2="12.29"/><line class="cls-2" x1="10.32" y1="17.12" x2="20.53" y2="17.12"/><line class="cls-2" x1="10.32" y1="19.94" x2="20.53" y2="19.94"/><line class="cls-2" x1="10.32" y1="22.76" x2="20.53" y2="22.76"/><line class="cls-2" x1="10.32" y1="25.58" x2="15.42" y2="25.58"/></svg>