<svg id="Layer_1" data-name="Layer 1" xmlns="http://www.w3.org/2000/svg" viewBox="0 0 40 40"><defs><style>.cls-1,.cls-2{fill:none;}.cls-2{stroke:#fff;stroke-miterlimit:10;}</style></defs><rect class="cls-1" width="40" height="40"/><polyline class="cls-2" points="25.28 26.11 25.28 32.23 7.49 32.23 7.49 7.77 21.95 7.77 25.28 11.11 25.28 17.22"/><polyline class="cls-2" points="24.17 12.22 20.83 12.22 20.83 8.88"/><path class="cls-2" d="M32.34,17,22.25,27.06l-4.2,1.83,1.84-4.19L30,14.6a.56.56,0,0,1,.78,0l1.57,1.58A.54.54,0,0,1,32.34,17Z"/><line class="cls-2" x1="28.02" y1="16.57" x2="30.38" y2="18.93"/><circle class="cls-2" cx="12.5" cy="15" r="1.67"/><path class="cls-2" d="M17.5,21.11h0a1.67,1.67,0,0,1-1.67-1.67h0a1.66,1.66,0,0,1,1.67-1.66h0a1.66,1.66,0,0,1,1.67,1.66h0A1.67,1.67,0,0,1,17.5,21.11Z"/><line class="cls-2" x1="11.94" y1="21.11" x2="18.05" y2="13.33"/><line class="cls-2" x1="16.94" y1="28.89" x2="12.5" y2="28.89"/></svg>