<svg id="Layer_1" data-name="Layer 1" xmlns="http://www.w3.org/2000/svg" viewBox="0 0 40 40"><defs><style>.cls-1{fill:none;}.cls-2{fill:#fff;}</style></defs><rect class="cls-1" width="40" height="40"/><path class="cls-2" d="M33.38,27.17H15.32a.29.29,0,0,1-.29-.29.28.28,0,0,1,.29-.28H33.38A1.61,1.61,0,0,0,35,25V12.13a1.61,1.61,0,0,0-1.61-1.61H12.23a1.61,1.61,0,0,0-1.6,1.61v6.39a.29.29,0,0,1-.58,0V12.13A2.19,2.19,0,0,1,12.23,10H33.38a2.19,2.19,0,0,1,2.18,2.18V25A2.19,2.19,0,0,1,33.38,27.17Z"/><path class="cls-2" d="M24.15,30.05H21.46a.29.29,0,0,1-.29-.29V26.88a.28.28,0,0,1,.29-.28h2.69a.28.28,0,0,1,.29.28v2.88A.29.29,0,0,1,24.15,30.05Zm-2.41-.57h2.13V27.17H21.74Z"/><path class="cls-2" d="M26.72,30.05H18.89a.29.29,0,0,1-.28-.29.28.28,0,0,1,.28-.28h7.83a.27.27,0,0,1,.28.28A.28.28,0,0,1,26.72,30.05Z"/><path class="cls-2" d="M24.94,19.11a.29.29,0,0,1-.21-.48l2.9-3.15a.29.29,0,1,1,.42.39L25.15,19A.29.29,0,0,1,24.94,19.11Z"/><path class="cls-2" d="M23.5,19.35a.23.23,0,0,1-.14,0l-2-1.17a.29.29,0,0,1-.11-.4.29.29,0,0,1,.39-.1l2,1.18a.28.28,0,0,1,.11.39A.3.3,0,0,1,23.5,19.35Z"/><path class="cls-2" d="M16.5,21.63a.29.29,0,0,1-.21-.09.3.3,0,0,1,0-.41l3.46-3.27a.28.28,0,0,1,.4,0,.29.29,0,0,1,0,.41L16.7,21.55A.32.32,0,0,1,16.5,21.63Z"/><path class="cls-2" d="M20.64,18.59a1.17,1.17,0,1,1,1.17-1.17A1.17,1.17,0,0,1,20.64,18.59Zm0-1.77a.6.6,0,0,0-.59.6.6.6,0,0,0,1.19,0A.6.6,0,0,0,20.64,16.82Z"/><path class="cls-2" d="M24.29,20.7a1.17,1.17,0,1,1,1.17-1.17A1.17,1.17,0,0,1,24.29,20.7Zm0-1.76a.58.58,0,0,0-.59.59.59.59,0,0,0,.59.6.6.6,0,0,0,.6-.6A.59.59,0,0,0,24.29,18.94Z"/><path class="cls-2" d="M28.49,16.14A1.17,1.17,0,1,1,29.65,15,1.17,1.17,0,0,1,28.49,16.14Zm0-1.76a.6.6,0,1,0,.59.59A.6.6,0,0,0,28.49,14.38Z"/><path class="cls-2" d="M30.18,23.58H16.36a.29.29,0,0,1-.29-.29V13.74a.29.29,0,0,1,.58,0V23H30.18a.29.29,0,0,1,0,.58Z"/><path class="cls-2" d="M17.29,15a.32.32,0,0,1-.2-.08l-.73-.73-.73.73a.28.28,0,0,1-.4,0,.28.28,0,0,1,0-.41l.93-.93a.28.28,0,0,1,.4,0l.94.93a.3.3,0,0,1,0,.41A.32.32,0,0,1,17.29,15Z"/><path class="cls-2" d="M29.25,24.51a.29.29,0,0,1-.2-.49l.73-.73-.73-.73a.28.28,0,0,1,0-.4.27.27,0,0,1,.4,0l.94.93a.28.28,0,0,1,0,.4l-.94.94A.3.3,0,0,1,29.25,24.51Z"/><path class="cls-2" d="M15.32,30.05a.29.29,0,0,1-.29-.29v-3.3A2.06,2.06,0,0,0,13,24.4H7.07A2.07,2.07,0,0,0,5,26.46v3.3a.28.28,0,0,1-.28.29.29.29,0,0,1-.29-.29v-3.3a2.63,2.63,0,0,1,2.63-2.63H13a2.63,2.63,0,0,1,2.63,2.63v3.3A.28.28,0,0,1,15.32,30.05Z"/><path class="cls-2" d="M10,22.81a2.27,2.27,0,1,1,2.27-2.27A2.27,2.27,0,0,1,10,22.81Zm0-4a1.7,1.7,0,1,0,1.7,1.69A1.69,1.69,0,0,0,10,18.85Z"/><path class="cls-2" d="M6.92,30.05a.28.28,0,0,1-.28-.29V26.82a.28.28,0,0,1,.28-.28.29.29,0,0,1,.29.28v2.94A.29.29,0,0,1,6.92,30.05Z"/><path class="cls-2" d="M13.13,30.05a.29.29,0,0,1-.29-.29V26.82a.29.29,0,0,1,.57,0v2.94A.29.29,0,0,1,13.13,30.05Z"/></svg>