<svg id="Layer_1" data-name="Layer 1" xmlns="http://www.w3.org/2000/svg" viewBox="0 0 40 40"><defs><style>.cls-1,.cls-2{fill:none;}.cls-2{stroke:#fff;stroke-miterlimit:10;}</style></defs><rect class="cls-1" width="40" height="40"/><path class="cls-2" d="M32,12.82h-2.1c-.09,0-.16.13-.16.29v3.55c0,.15.07.28.16.28H32c.1,0,.17-.13.17-.28V13.11c0-.16-.07-.29-.17-.29Z"/><path class="cls-2" d="M32,23.06h-2.1c-.09,0-.16.13-.16.28v3.55c0,.16.07.29.16.29H32c.1,0,.17-.13.17-.29V23.34c0-.15-.07-.28-.17-.28Z"/><path class="cls-2" d="M31,12.41V10.54A1.52,1.52,0,0,0,29.46,9H10.54A1.52,1.52,0,0,0,9,10.54V29.46A1.52,1.52,0,0,0,10.54,31H29.46A1.52,1.52,0,0,0,31,29.46V27.34"/><polyline class="cls-2" points="30.98 22.86 30.98 20 30.98 17.39"/><path class="cls-2" d="M20,13.7A6.3,6.3,0,1,0,26.3,20,6.3,6.3,0,0,0,20,13.7Z"/><path class="cls-2" d="M20,16.66A3.34,3.34,0,1,0,23.34,20,3.35,3.35,0,0,0,20,16.66Z"/><path class="cls-2" d="M30.46,5.9H9.54A3.65,3.65,0,0,0,5.9,9.54V30.46A3.65,3.65,0,0,0,9.54,34.1H30.46a3.65,3.65,0,0,0,3.64-3.64V9.54A3.65,3.65,0,0,0,30.46,5.9Z"/><line class="cls-2" x1="20" y1="13.7" x2="20" y2="15.21"/><line class="cls-2" x1="15.55" y1="15.55" x2="16.61" y2="16.61"/><line class="cls-2" x1="13.7" y1="20" x2="15.21" y2="20"/><line class="cls-2" x1="15.55" y1="24.45" x2="16.61" y2="23.39"/><line class="cls-2" x1="20" y1="26.3" x2="20" y2="24.79"/><line class="cls-2" x1="24.45" y1="24.45" x2="23.39" y2="23.39"/><line class="cls-2" x1="26.3" y1="20" x2="24.79" y2="20"/><line class="cls-2" x1="24.45" y1="15.55" x2="23.39" y2="16.61"/></svg>