<svg id="Layer_1" data-name="Layer 1" xmlns="http://www.w3.org/2000/svg" viewBox="0 0 40 40"><defs><style>.cls-1,.cls-2{fill:none;}.cls-2{stroke:#fff;stroke-linecap:round;stroke-linejoin:round;}</style></defs><rect class="cls-1" width="40" height="40"/><rect class="cls-1" width="40" height="40"/><path class="cls-2" d="M20,33.9C12.6,30.7,7.6,24.62,7.6,17.64c0-3.57,0-7.15,0-10.73a7.88,7.88,0,0,0,5.92,2.2c3.08,0,5.68-1.28,6.44-3,.76,1.73,3.36,3,6.44,3a7.88,7.88,0,0,0,5.92-2.2c0,3.58,0,7.16,0,10.73,0,7-5,13.06-12.4,16.26Z"/><line class="cls-2" x1="20" y1="13.87" x2="20" y2="26.13"/><line class="cls-2" x1="13.87" y1="20" x2="26.13" y2="20"/></svg>