<svg id="Layer_1" data-name="Layer 1" xmlns="http://www.w3.org/2000/svg" viewBox="0 0 40 40"><defs><style>.cls-1,.cls-2{fill:none;}.cls-2{stroke:#fff;stroke-miterlimit:10;}</style></defs><rect class="cls-1" width="40" height="40"/><line class="cls-2" x1="7.93" y1="13.96" x2="18.15" y2="10.24"/><line class="cls-2" x1="21.73" y1="8.93" x2="32.07" y2="5.16"/><line class="cls-2" x1="20" y1="34.84" x2="20" y2="11.53"/><line class="cls-2" x1="12.7" y1="34.84" x2="27.3" y2="34.84"/><path class="cls-2" d="M20,7.92a1.81,1.81,0,1,1-1.8,1.8A1.8,1.8,0,0,1,20,7.92Z"/><line class="cls-2" x1="5.65" y1="27.46" x2="16.15" y2="27.46"/><path class="cls-2" d="M5.91,28.52a5.71,5.71,0,0,0,5,3.26,5.67,5.67,0,0,0,4.95-3.2,2.1,2.1,0,0,0,.11-2l-4.3-11.22a.66.66,0,0,0-.41-.45.65.65,0,0,0-.81.4h0C8.9,19.75,7.37,22.22,5.83,26.66a2,2,0,0,0,.08,1.86Z"/><line class="cls-2" x1="23.85" y1="20.93" x2="34.35" y2="20.93"/><path class="cls-2" d="M24.11,22a5.71,5.71,0,0,0,5,3.26,5.67,5.67,0,0,0,4.95-3.2,2.13,2.13,0,0,0,.11-2L29.86,8.82a.62.62,0,0,0-.41-.44.64.64,0,0,0-.82.4h0C27.1,13.21,25.57,15.69,24,20.12A2,2,0,0,0,24.11,22Z"/></svg>